<?xml version="1.0" encoding="UTF-8" standalone="no"?>
<!DOCTYPE svg PUBLIC "-//W3C//DTD SVG 1.1//EN"
 "http://www.w3.org/Graphics/SVG/1.1/DTD/svg11.dtd">
<!-- Generated by graphviz version 2.36.0 (20140111.2315)
 -->
<!-- Title: ims Pages: 1 -->
<svg width="759pt" height="608pt"
 viewBox="0.00 0.00 1518.08 1216.17" xmlns="http://www.w3.org/2000/svg" xmlns:xlink="http://www.w3.org/1999/xlink">
<g id="graph0" class="graph" transform="scale(1 1) rotate(0) translate(4 1212.17)">
<title>ims</title>
<polygon fill="white" stroke="none" points="-4,4 -4,-1212.17 1514.08,-1212.17 1514.08,4 -4,4"/>
<!-- ConceptWiki -->
<g id="node1" class="node"><title>ConceptWiki</title>
<ellipse fill="none" stroke="black" cx="703.926" cy="-452.494" rx="72" ry="36"/>
<text text-anchor="middle" x="703.926" y="-448.794" font-family="Times,serif" font-size="14.00">ConceptWiki</text>
</g>
<!-- Uniprot -->
<g id="node3" class="node"><title>Uniprot</title>
<ellipse fill="none" stroke="black" cx="845.485" cy="-473.756" rx="72" ry="36"/>
<text text-anchor="middle" x="845.485" y="-470.056" font-family="Times,serif" font-size="14.00">Uniprot</text>
</g>
<!-- ConceptWiki&#45;&#45;Uniprot -->
<g id="edge28" class="edge"><title>ConceptWiki&#45;&#45;Uniprot</title>
<path fill="none" stroke="black" d="M773.047,-462.875C774.17,-463.044 775.293,-463.213 776.416,-463.381"/>
</g>
<!-- ConceptWiki&#45;&#45;Uniprot -->
<g id="edge29" class="edge"><title>ConceptWiki&#45;&#45;Uniprot</title>
<path fill="none" stroke="black" d="M773.047,-462.875C774.17,-463.044 775.293,-463.213 776.416,-463.381"/>
</g>
<!-- ConceptWiki&#45;&#45;Uniprot -->
<g id="edge30" class="edge"><title>ConceptWiki&#45;&#45;Uniprot</title>
<path fill="none" stroke="black" d="M773.047,-462.875C774.17,-463.044 775.293,-463.213 776.416,-463.381"/>
</g>
<!-- HMDB -->
<g id="node6" class="node"><title>HMDB</title>
<ellipse fill="none" stroke="black" cx="655.101" cy="-186.992" rx="34.146" ry="21.5"/>
<text text-anchor="middle" x="655.101" y="-183.292" font-family="Times,serif" font-size="14.00">HMDB</text>
</g>
<!-- ConceptWiki&#45;&#45;HMDB -->
<g id="edge8" class="edge"><title>ConceptWiki&#45;&#45;HMDB</title>
<path fill="none" stroke="black" d="M679.755,-418.481C663.917,-393.659 645.057,-358.461 638.949,-324.001 631.76,-283.437 641.522,-235.533 648.703,-208.463"/>
</g>
<!-- ChEBI -->
<g id="node13" class="node"><title>ChEBI</title>
<ellipse fill="none" stroke="black" cx="489.483" cy="-254.425" rx="31.911" ry="21.5"/>
<text text-anchor="middle" x="489.483" y="-250.725" font-family="Times,serif" font-size="14.00">ChEBI</text>
</g>
<!-- ConceptWiki&#45;&#45;ChEBI -->
<g id="edge7" class="edge"><title>ConceptWiki&#45;&#45;ChEBI</title>
<path fill="none" stroke="black" d="M670.089,-420.597C664.564,-415.417 658.894,-410.119 653.529,-405.133 601.398,-356.695 539.459,-300.031 508.742,-271.988"/>
</g>
<!-- Chembl_Compound -->
<g id="node14" class="node"><title>Chembl_Compound</title>
<ellipse fill="none" stroke="black" cx="99.3985" cy="-416.067" rx="75.9934" ry="21.5"/>
<text text-anchor="middle" x="99.3985" y="-412.367" font-family="Times,serif" font-size="14.00">Chembl_Compound</text>
</g>
<!-- ConceptWiki&#45;&#45;Chembl_Compound -->
<g id="edge9" class="edge"><title>ConceptWiki&#45;&#45;Chembl_Compound</title>
<path fill="none" stroke="black" d="M634.958,-441.604C567.776,-431.629 462.651,-417.694 370.941,-412.8 304.559,-409.258 228.926,-410.609 174.37,-412.537"/>
</g>
<!-- ConceptWiki&#45;&#45;Chembl_Compound -->
<g id="edge10" class="edge"><title>ConceptWiki&#45;&#45;Chembl_Compound</title>
<path fill="none" stroke="black" d="M634.958,-441.604C567.776,-431.629 462.651,-417.694 370.941,-412.8 304.559,-409.258 228.926,-410.609 174.37,-412.537"/>
</g>
<!-- Chemspider -->
<g id="node15" class="node"><title>Chemspider</title>
<ellipse fill="none" stroke="black" cx="688.465" cy="-324.145" rx="49.2338" ry="21.5"/>
<text text-anchor="middle" x="688.465" y="-320.445" font-family="Times,serif" font-size="14.00">Chemspider</text>
</g>
<!-- ConceptWiki&#45;&#45;Chemspider -->
<g id="edge11" class="edge"><title>ConceptWiki&#45;&#45;Chemspider</title>
<path fill="none" stroke="black" d="M699.578,-416.4C696.845,-393.711 693.409,-365.19 691.087,-345.912"/>
</g>
<!-- DrugBank -->
<g id="node16" class="node"><title>DrugBank</title>
<ellipse fill="none" stroke="black" cx="503.225" cy="-510.161" rx="43.3991" ry="21.5"/>
<text text-anchor="middle" x="503.225" y="-506.461" font-family="Times,serif" font-size="14.00">DrugBank</text>
</g>
<!-- ConceptWiki&#45;&#45;DrugBank -->
<g id="edge12" class="edge"><title>ConceptWiki&#45;&#45;DrugBank</title>
<path fill="none" stroke="black" d="M641.249,-470.503C608.239,-479.987 568.868,-491.3 540.639,-499.411"/>
</g>
<!-- ConceptWiki&#45;&#45;DrugBank -->
<g id="edge13" class="edge"><title>ConceptWiki&#45;&#45;DrugBank</title>
<path fill="none" stroke="black" d="M641.249,-470.503C608.239,-479.987 568.868,-491.3 540.639,-499.411"/>
</g>
<!-- ConceptWiki&#45;&#45;DrugBank -->
<g id="edge14" class="edge"><title>ConceptWiki&#45;&#45;DrugBank</title>
<path fill="none" stroke="black" d="M641.249,-470.503C608.239,-479.987 568.868,-491.3 540.639,-499.411"/>
</g>
<!-- DrugBank_Target -->
<g id="node17" class="node"><title>DrugBank_Target</title>
<ellipse fill="none" stroke="black" cx="471.852" cy="-658.569" rx="68.1067" ry="21.5"/>
<text text-anchor="middle" x="471.852" y="-654.869" font-family="Times,serif" font-size="14.00">DrugBank_Target</text>
</g>
<!-- ConceptWiki&#45;&#45;DrugBank_Target -->
<g id="edge15" class="edge"><title>ConceptWiki&#45;&#45;DrugBank_Target</title>
<path fill="none" stroke="black" d="M665.746,-483.297C632.617,-510.359 583.675,-551.145 542.704,-588.569 525.085,-604.662 505.873,-623.746 491.905,-637.92"/>
</g>
<!-- Enzyme_Nomenclature -->
<g id="node18" class="node"><title>Enzyme_Nomenclature</title>
<ellipse fill="none" stroke="black" cx="513.184" cy="-832.097" rx="86.2964" ry="21.5"/>
<text text-anchor="middle" x="513.184" y="-828.397" font-family="Times,serif" font-size="14.00">Enzyme_Nomenclature</text>
</g>
<!-- ConceptWiki&#45;&#45;Enzyme_Nomenclature -->
<g id="edge16" class="edge"><title>ConceptWiki&#45;&#45;Enzyme_Nomenclature</title>
<path fill="none" stroke="black" d="M704.973,-488.728C704.621,-516.932 701.525,-556.587 689.073,-588.946 653.336,-681.82 573.015,-771.46 534.532,-810.993"/>
</g>
<!-- Bioontology_MESH -->
<g id="node19" class="node"><title>Bioontology_MESH</title>
<ellipse fill="none" stroke="black" cx="576.791" cy="-405.109" rx="76.1765" ry="21.5"/>
<text text-anchor="middle" x="576.791" y="-401.409" font-family="Times,serif" font-size="14.00">Bioontology_MESH</text>
</g>
<!-- ConceptWiki&#45;&#45;Bioontology_MESH -->
<g id="edge17" class="edge"><title>ConceptWiki&#45;&#45;Bioontology_MESH</title>
<path fill="none" stroke="black" d="M645.939,-430.881C638.211,-428.001 630.373,-425.079 622.885,-422.288"/>
</g>
<!-- ConceptWiki&#45;&#45;Bioontology_MESH -->
<g id="edge18" class="edge"><title>ConceptWiki&#45;&#45;Bioontology_MESH</title>
<path fill="none" stroke="black" d="M645.939,-430.881C638.211,-428.001 630.373,-425.079 622.885,-422.288"/>
</g>
<!-- ConceptWiki&#45;&#45;Bioontology_MESH -->
<g id="edge19" class="edge"><title>ConceptWiki&#45;&#45;Bioontology_MESH</title>
<path fill="none" stroke="black" d="M645.939,-430.881C638.211,-428.001 630.373,-425.079 622.885,-422.288"/>
</g>
<!-- ConceptWiki&#45;&#45;Bioontology_MESH -->
<g id="edge20" class="edge"><title>ConceptWiki&#45;&#45;Bioontology_MESH</title>
<path fill="none" stroke="black" d="M645.939,-430.881C638.211,-428.001 630.373,-425.079 622.885,-422.288"/>
</g>
<!-- Bioontology_UMLS_NCIM -->
<g id="node20" class="node"><title>Bioontology_UMLS_NCIM</title>
<ellipse fill="none" stroke="black" cx="283.07" cy="-591.758" rx="101.569" ry="21.5"/>
<text text-anchor="middle" x="283.07" y="-588.058" font-family="Times,serif" font-size="14.00">Bioontology_UMLS_NCIM</text>
</g>
<!-- ConceptWiki&#45;&#45;Bioontology_UMLS_NCIM -->
<g id="edge21" class="edge"><title>ConceptWiki&#45;&#45;Bioontology_UMLS_NCIM</title>
<path fill="none" stroke="black" d="M651.542,-477.462C618.356,-492.674 574.257,-511.786 534.03,-525.659 474.079,-546.334 404.189,-564.255 353.412,-576.201"/>
</g>
<!-- ConceptWiki&#45;&#45;Bioontology_UMLS_NCIM -->
<g id="edge22" class="edge"><title>ConceptWiki&#45;&#45;Bioontology_UMLS_NCIM</title>
<path fill="none" stroke="black" d="M651.542,-477.462C618.356,-492.674 574.257,-511.786 534.03,-525.659 474.079,-546.334 404.189,-564.255 353.412,-576.201"/>
</g>
<!-- ConceptWiki&#45;&#45;Bioontology_UMLS_NCIM -->
<g id="edge23" class="edge"><title>ConceptWiki&#45;&#45;Bioontology_UMLS_NCIM</title>
<path fill="none" stroke="black" d="M651.542,-477.462C618.356,-492.674 574.257,-511.786 534.03,-525.659 474.079,-546.334 404.189,-564.255 353.412,-576.201"/>
</g>
<!-- ConceptWiki&#45;&#45;Bioontology_UMLS_NCIM -->
<g id="edge24" class="edge"><title>ConceptWiki&#45;&#45;Bioontology_UMLS_NCIM</title>
<path fill="none" stroke="black" d="M651.542,-477.462C618.356,-492.674 574.257,-511.786 534.03,-525.659 474.079,-546.334 404.189,-564.255 353.412,-576.201"/>
</g>
<!-- Protein_Data_Bank -->
<g id="node21" class="node"><title>Protein_Data_Bank</title>
<ellipse fill="none" stroke="black" cx="615.889" cy="-588.758" rx="72.5756" ry="21.5"/>
<text text-anchor="middle" x="615.889" y="-585.058" font-family="Times,serif" font-size="14.00">Protein_Data_Bank</text>
</g>
<!-- ConceptWiki&#45;&#45;Protein_Data_Bank -->
<g id="edge25" class="edge"><title>ConceptWiki&#45;&#45;Protein_Data_Bank</title>
<path fill="none" stroke="black" d="M681.711,-486.879C665.309,-512.266 643.503,-546.016 629.578,-567.569"/>
</g>
<!-- ConceptWiki&#45;&#45;Protein_Data_Bank -->
<g id="edge26" class="edge"><title>ConceptWiki&#45;&#45;Protein_Data_Bank</title>
<path fill="none" stroke="black" d="M681.711,-486.879C665.309,-512.266 643.503,-546.016 629.578,-567.569"/>
</g>
<!-- Protein_Data_Bank_Ligand -->
<g id="node22" class="node"><title>Protein_Data_Bank_Ligand</title>
<ellipse fill="none" stroke="black" cx="317.452" cy="-814.514" rx="99.3341" ry="21.5"/>
<text text-anchor="middle" x="317.452" y="-810.814" font-family="Times,serif" font-size="14.00">Protein_Data_Bank_Ligand</text>
</g>
<!-- ConceptWiki&#45;&#45;Protein_Data_Bank_Ligand -->
<g id="edge27" class="edge"><title>ConceptWiki&#45;&#45;Protein_Data_Bank_Ligand</title>
<path fill="none" stroke="black" d="M651.841,-477.387C586.555,-510.79 474.599,-575.628 403.399,-658.53 367.037,-700.868 339.224,-761.048 325.981,-792.862"/>
</g>
<!-- GeneOntology -->
<g id="node23" class="node"><title>GeneOntology</title>
<ellipse fill="none" stroke="black" cx="370.903" cy="-434.7" rx="56.6201" ry="21.5"/>
<text text-anchor="middle" x="370.903" y="-431" font-family="Times,serif" font-size="14.00">GeneOntology</text>
</g>
<!-- ConceptWiki&#45;&#45;GeneOntology -->
<g id="edge31" class="edge"><title>ConceptWiki&#45;&#45;GeneOntology</title>
<path fill="none" stroke="black" d="M632.075,-448.655C570.697,-445.375 483.622,-440.723 427.198,-437.708"/>
</g>
<!-- WikiPathways -->
<g id="node24" class="node"><title>WikiPathways</title>
<ellipse fill="none" stroke="black" cx="825.146" cy="-189.203" rx="56.6201" ry="21.5"/>
<text text-anchor="middle" x="825.146" y="-185.503" font-family="Times,serif" font-size="14.00">WikiPathways</text>
</g>
<!-- ConceptWiki&#45;&#45;WikiPathways -->
<g id="edge32" class="edge"><title>ConceptWiki&#45;&#45;WikiPathways</title>
<path fill="none" stroke="black" d="M720.149,-417.258C745.696,-361.768 794.535,-255.69 815.354,-210.472"/>
</g>
<!-- Ensembl -->
<g id="node2" class="node"><title>Ensembl</title>
<ellipse fill="none" stroke="black" cx="847.337" cy="-721.287" rx="72" ry="36"/>
<text text-anchor="middle" x="847.337" y="-717.587" font-family="Times,serif" font-size="14.00">Ensembl</text>
</g>
<!-- Ensembl&#45;&#45;Ensembl -->
<g id="edge36" class="edge"><title>Ensembl&#45;&#45;Ensembl</title>
<path fill="none" stroke="black" d="M919.363,-724.348C930.085,-723.872 937.337,-722.851 937.337,-721.287 937.337,-719.722 930.085,-718.702 919.363,-718.225"/>
</g>
<!-- Ensembl&#45;&#45;Ensembl -->
<g id="edge37" class="edge"><title>Ensembl&#45;&#45;Ensembl</title>
<path fill="none" stroke="black" d="M918.228,-728.019C939.118,-727.802 955.337,-725.558 955.337,-721.287 955.337,-717.015 939.118,-714.771 918.228,-714.554"/>
</g>
<!-- Ensembl&#45;&#45;Uniprot -->
<g id="edge54" class="edge"><title>Ensembl&#45;&#45;Uniprot</title>
<path fill="none" stroke="black" d="M843.029,-685.263C840.347,-659.908 837.374,-625.153 837.202,-594.447 837.043,-565.989 839.373,-533.844 841.601,-509.888"/>
</g>
<!-- Ensembl&#45;&#45;Enzyme_Nomenclature -->
<g id="edge34" class="edge"><title>Ensembl&#45;&#45;Enzyme_Nomenclature</title>
<path fill="none" stroke="black" d="M787.211,-741.225C723.889,-762.224 625.207,-794.949 565.146,-814.866"/>
</g>
<!-- Ensembl&#45;&#45;Protein_Data_Bank -->
<g id="edge50" class="edge"><title>Ensembl&#45;&#45;Protein_Data_Bank</title>
<path fill="none" stroke="black" d="M791.177,-698.562C767.662,-688.309 740.37,-675.424 716.793,-661.702 689.703,-645.937 660.929,-624.629 641.07,-609.115"/>
</g>
<!-- BioGrid -->
<g id="node25" class="node"><title>BioGrid</title>
<ellipse fill="none" stroke="black" cx="985.522" cy="-838.607" rx="36.196" ry="21.5"/>
<text text-anchor="middle" x="985.522" y="-834.907" font-family="Times,serif" font-size="14.00">BioGrid</text>
</g>
<!-- Ensembl&#45;&#45;BioGrid -->
<g id="edge33" class="edge"><title>Ensembl&#45;&#45;BioGrid</title>
<path fill="none" stroke="black" d="M884.005,-752.418C909.751,-774.277 943.265,-802.731 964.594,-820.839"/>
</g>
<!-- Embl -->
<g id="node26" class="node"><title>Embl</title>
<ellipse fill="none" stroke="black" cx="1178.22" cy="-808.859" rx="29" ry="21.5"/>
<text text-anchor="middle" x="1178.22" y="-805.159" font-family="Times,serif" font-size="14.00">Embl</text>
</g>
<!-- Ensembl&#45;&#45;Embl -->
<g id="edge35" class="edge"><title>Ensembl&#45;&#45;Embl</title>
<path fill="none" stroke="black" d="M911.134,-738.171C983.623,-757.356 1098.62,-787.791 1150.83,-801.609"/>
</g>
<!-- FlyBase -->
<g id="node27" class="node"><title>FlyBase</title>
<ellipse fill="none" stroke="black" cx="742.691" cy="-646.271" rx="36.196" ry="21.5"/>
<text text-anchor="middle" x="742.691" y="-642.571" font-family="Times,serif" font-size="14.00">FlyBase</text>
</g>
<!-- Ensembl&#45;&#45;FlyBase -->
<g id="edge38" class="edge"><title>Ensembl&#45;&#45;FlyBase</title>
<path fill="none" stroke="black" d="M805.978,-691.638C792.381,-681.892 777.75,-671.403 765.984,-662.969"/>
</g>
<!-- GenBank -->
<g id="node28" class="node"><title>GenBank</title>
<ellipse fill="none" stroke="black" cx="1376.42" cy="-683.381" rx="40.4819" ry="21.5"/>
<text text-anchor="middle" x="1376.42" y="-679.681" font-family="Times,serif" font-size="14.00">GenBank</text>
</g>
<!-- Ensembl&#45;&#45;GenBank -->
<g id="edge39" class="edge"><title>Ensembl&#45;&#45;GenBank</title>
<path fill="none" stroke="black" d="M918.691,-716.174C1031.52,-708.091 1247.43,-692.623 1336.49,-686.242"/>
</g>
<!-- HGNC_Accession_number -->
<g id="node29" class="node"><title>HGNC_Accession_number</title>
<ellipse fill="none" stroke="black" cx="940.459" cy="-1033.95" rx="98.4675" ry="21.5"/>
<text text-anchor="middle" x="940.459" y="-1030.25" font-family="Times,serif" font-size="14.00">HGNC_Accession_number</text>
</g>
<!-- Ensembl&#45;&#45;HGNC_Accession_number -->
<g id="edge40" class="edge"><title>Ensembl&#45;&#45;HGNC_Accession_number</title>
<path fill="none" stroke="black" d="M858.019,-757.153C877.51,-822.599 918.287,-959.512 934.049,-1012.43"/>
</g>
<!-- InterPro -->
<g id="node30" class="node"><title>InterPro</title>
<ellipse fill="none" stroke="black" cx="666.459" cy="-889.295" rx="36.196" ry="21.5"/>
<text text-anchor="middle" x="666.459" y="-885.595" font-family="Times,serif" font-size="14.00">InterPro</text>
</g>
<!-- Ensembl&#45;&#45;InterPro -->
<g id="edge41" class="edge"><title>Ensembl&#45;&#45;InterPro</title>
<path fill="none" stroke="black" d="M812.889,-753.283C775.272,-788.224 716.347,-842.957 685.989,-871.155"/>
</g>
<!-- IPI -->
<g id="node31" class="node"><title>IPI</title>
<ellipse fill="none" stroke="black" cx="866.601" cy="-594.646" rx="29" ry="21.5"/>
<text text-anchor="middle" x="866.601" y="-590.946" font-family="Times,serif" font-size="14.00">IPI</text>
</g>
<!-- Ensembl&#45;&#45;IPI -->
<g id="edge42" class="edge"><title>Ensembl&#45;&#45;IPI</title>
<path fill="none" stroke="black" d="M852.805,-685.335C856.187,-663.105 860.417,-635.301 863.295,-616.38"/>
</g>
<!-- Entrez_Gene -->
<g id="node32" class="node"><title>Entrez_Gene</title>
<ellipse fill="none" stroke="black" cx="1186.07" cy="-588.133" rx="51.4676" ry="21.5"/>
<text text-anchor="middle" x="1186.07" y="-584.433" font-family="Times,serif" font-size="14.00">Entrez_Gene</text>
</g>
<!-- Ensembl&#45;&#45;Entrez_Gene -->
<g id="edge43" class="edge"><title>Ensembl&#45;&#45;Entrez_Gene</title>
<path fill="none" stroke="black" d="M899.081,-696.216C925.997,-683.542 959.594,-668.289 990.228,-656.016 1042.84,-634.937 1104.84,-614.101 1144.77,-601.187"/>
</g>
<!-- Locus_Reference_Genomic -->
<g id="node33" class="node"><title>Locus_Reference_Genomic</title>
<ellipse fill="none" stroke="black" cx="772.208" cy="-1059.66" rx="99.3341" ry="21.5"/>
<text text-anchor="middle" x="772.208" y="-1055.96" font-family="Times,serif" font-size="14.00">Locus_Reference_Genomic</text>
</g>
<!-- Ensembl&#45;&#45;Locus_Reference_Genomic -->
<g id="edge44" class="edge"><title>Ensembl&#45;&#45;Locus_Reference_Genomic</title>
<path fill="none" stroke="black" d="M828.461,-756.25C814.314,-784.251 795.865,-824.988 786.616,-862.942 771.455,-925.157 770.755,-1001.44 771.48,-1038.05"/>
</g>
<!-- Ensembl&#45;&#45;Locus_Reference_Genomic -->
<g id="edge45" class="edge"><title>Ensembl&#45;&#45;Locus_Reference_Genomic</title>
<path fill="none" stroke="black" d="M828.461,-756.25C814.314,-784.251 795.865,-824.988 786.616,-862.942 771.455,-925.157 770.755,-1001.44 771.48,-1038.05"/>
</g>
<!-- MGI -->
<g id="node34" class="node"><title>MGI</title>
<ellipse fill="none" stroke="black" cx="1010.93" cy="-671.568" rx="29" ry="21.5"/>
<text text-anchor="middle" x="1010.93" y="-667.868" font-family="Times,serif" font-size="14.00">MGI</text>
</g>
<!-- Ensembl&#45;&#45;MGI -->
<g id="edge46" class="edge"><title>Ensembl&#45;&#45;MGI</title>
<path fill="none" stroke="black" d="M909.183,-702.49C935.06,-694.626 963.775,-685.899 984.082,-679.727"/>
</g>
<!-- mirBase_sequence -->
<g id="node35" class="node"><title>mirBase_sequence</title>
<ellipse fill="none" stroke="black" cx="375.636" cy="-1037.75" rx="70.3409" ry="21.5"/>
<text text-anchor="middle" x="375.636" y="-1034.05" font-family="Times,serif" font-size="14.00">mirBase_sequence</text>
</g>
<!-- Ensembl&#45;&#45;mirBase_sequence -->
<g id="edge47" class="edge"><title>Ensembl&#45;&#45;mirBase_sequence</title>
<path fill="none" stroke="black" d="M804.226,-750.21C709.501,-813.761 485.272,-964.196 404.92,-1018.1"/>
</g>
<!-- MEROPS -->
<g id="node36" class="node"><title>MEROPS</title>
<ellipse fill="none" stroke="black" cx="583.275" cy="-1051.84" rx="42.0311" ry="21.5"/>
<text text-anchor="middle" x="583.275" y="-1048.14" font-family="Times,serif" font-size="14.00">MEROPS</text>
</g>
<!-- Ensembl&#45;&#45;MEROPS -->
<g id="edge48" class="edge"><title>Ensembl&#45;&#45;MEROPS</title>
<path fill="none" stroke="black" d="M820.564,-754.801C766.019,-823.08 643.462,-976.498 599.42,-1031.63"/>
</g>
<!-- Orphanet -->
<g id="node37" class="node"><title>Orphanet</title>
<ellipse fill="none" stroke="black" cx="1362" cy="-996.163" rx="39.7975" ry="21.5"/>
<text text-anchor="middle" x="1362" y="-992.463" font-family="Times,serif" font-size="14.00">Orphanet</text>
</g>
<!-- Ensembl&#45;&#45;Orphanet -->
<g id="edge49" class="edge"><title>Ensembl&#45;&#45;Orphanet</title>
<path fill="none" stroke="black" d="M896.684,-747.643C1002.73,-804.281 1249.53,-936.094 1333.46,-980.923"/>
</g>
<!-- RefSeq -->
<g id="node38" class="node"><title>RefSeq</title>
<ellipse fill="none" stroke="black" cx="991.846" cy="-527.949" rx="33.2786" ry="21.5"/>
<text text-anchor="middle" x="991.846" y="-524.249" font-family="Times,serif" font-size="14.00">RefSeq</text>
</g>
<!-- Ensembl&#45;&#45;RefSeq -->
<g id="edge51" class="edge"><title>Ensembl&#45;&#45;RefSeq</title>
<path fill="none" stroke="black" d="M872.839,-687.167C903.224,-646.515 952.94,-580.001 977.371,-547.316"/>
</g>
<!-- RGD -->
<g id="node39" class="node"><title>RGD</title>
<ellipse fill="none" stroke="black" cx="740.306" cy="-544.323" rx="29" ry="21.5"/>
<text text-anchor="middle" x="740.306" y="-540.623" font-family="Times,serif" font-size="14.00">RGD</text>
</g>
<!-- Ensembl&#45;&#45;RGD -->
<g id="edge52" class="edge"><title>Ensembl&#45;&#45;RGD</title>
<path fill="none" stroke="black" d="M826.446,-686.746C804.302,-650.133 770.106,-593.594 752.186,-563.967"/>
</g>
<!-- Rfam -->
<g id="node40" class="node"><title>Rfam</title>
<ellipse fill="none" stroke="black" cx="816.015" cy="-863.096" rx="29" ry="21.5"/>
<text text-anchor="middle" x="816.015" y="-859.396" font-family="Times,serif" font-size="14.00">Rfam</text>
</g>
<!-- Ensembl&#45;&#45;Rfam -->
<g id="edge53" class="edge"><title>Ensembl&#45;&#45;Rfam</title>
<path fill="none" stroke="black" d="M839.433,-757.071C833.525,-783.819 825.647,-819.489 820.702,-841.875"/>
</g>
<!-- UniParc -->
<g id="node41" class="node"><title>UniParc</title>
<ellipse fill="none" stroke="black" cx="121.714" cy="-1009.13" rx="36.196" ry="21.5"/>
<text text-anchor="middle" x="121.714" y="-1005.43" font-family="Times,serif" font-size="14.00">UniParc</text>
</g>
<!-- Ensembl&#45;&#45;UniParc -->
<g id="edge55" class="edge"><title>Ensembl&#45;&#45;UniParc</title>
<path fill="none" stroke="black" d="M796.142,-746.683C741.756,-773.261 652.961,-815.508 574.431,-847.615 418.981,-911.171 228.158,-974.617 153.647,-998.848"/>
</g>
<!-- ZFIN -->
<g id="node42" class="node"><title>ZFIN</title>
<ellipse fill="none" stroke="black" cx="661.152" cy="-732.933" rx="29" ry="21.5"/>
<text text-anchor="middle" x="661.152" y="-729.233" font-family="Times,serif" font-size="14.00">ZFIN</text>
</g>
<!-- Ensembl&#45;&#45;ZFIN -->
<g id="edge56" class="edge"><title>Ensembl&#45;&#45;ZFIN</title>
<path fill="none" stroke="black" d="M775.885,-725.756C746.146,-727.616 713.288,-729.672 690.384,-731.104"/>
</g>
<!-- Uniprot&#45;&#45;Ensembl -->
<g id="edge75" class="edge"><title>Uniprot&#45;&#45;Ensembl</title>
<path fill="none" stroke="black" d="M841.601,-509.888C839.373,-533.844 837.043,-565.989 837.202,-594.447 837.374,-625.153 840.347,-659.908 843.029,-685.263"/>
</g>
<!-- Chembl_Target_Components -->
<g id="node11" class="node"><title>Chembl_Target_Components</title>
<ellipse fill="none" stroke="black" cx="1166.75" cy="-238.996" rx="105.17" ry="21.5"/>
<text text-anchor="middle" x="1166.75" y="-235.296" font-family="Times,serif" font-size="14.00">Chembl_Target_Components</text>
</g>
<!-- Uniprot&#45;&#45;Chembl_Target_Components -->
<g id="edge73" class="edge"><title>Uniprot&#45;&#45;Chembl_Target_Components</title>
<path fill="none" stroke="black" d="M873.032,-440.238C891.344,-419.148 916.649,-392.165 942.22,-371.785 1001.36,-324.647 1078.89,-282.501 1125.65,-258.893"/>
</g>
<!-- Uniprot&#45;&#45;Protein_Data_Bank -->
<g id="edge81" class="edge"><title>Uniprot&#45;&#45;Protein_Data_Bank</title>
<path fill="none" stroke="black" d="M789.452,-496.628C767.455,-506.021 742.153,-517.344 719.722,-528.687 695.003,-541.185 667.943,-556.911 647.646,-569.137"/>
</g>
<!-- Uniprot&#45;&#45;FlyBase -->
<g id="edge76" class="edge"><title>Uniprot&#45;&#45;FlyBase</title>
<path fill="none" stroke="black" d="M824.683,-508.667C803.681,-543.914 771.962,-597.146 754.782,-625.979"/>
</g>
<!-- Uniprot&#45;&#45;IPI -->
<g id="edge77" class="edge"><title>Uniprot&#45;&#45;IPI</title>
<path fill="none" stroke="black" d="M851.763,-509.699C855.362,-530.301 859.759,-555.473 862.828,-573.046"/>
</g>
<!-- Uniprot&#45;&#45;Entrez_Gene -->
<g id="edge78" class="edge"><title>Uniprot&#45;&#45;Entrez_Gene</title>
<path fill="none" stroke="black" d="M912.036,-487.67C937.168,-493.121 965.978,-499.607 992.027,-506.05 1002.61,-508.668 1005.42,-508.882 1015.69,-512.547 1064.45,-529.949 1118.82,-555.124 1152.73,-571.559"/>
</g>
<!-- Uniprot&#45;&#45;MGI -->
<g id="edge79" class="edge"><title>Uniprot&#45;&#45;MGI</title>
<path fill="none" stroke="black" d="M873.55,-507.312C908.674,-549.309 967.595,-619.759 995.447,-653.06"/>
</g>
<!-- Uniprot&#45;&#45;RefSeq -->
<g id="edge82" class="edge"><title>Uniprot&#45;&#45;RefSeq</title>
<path fill="none" stroke="black" d="M903.751,-495.33C924,-502.827 945.839,-510.914 962.707,-517.16"/>
</g>
<!-- Uniprot&#45;&#45;RGD -->
<g id="edge83" class="edge"><title>Uniprot&#45;&#45;RGD</title>
<path fill="none" stroke="black" d="M802.401,-502.662C788.445,-512.025 773.565,-522.009 761.871,-529.855"/>
</g>
<!-- Uniprot&#45;&#45;ZFIN -->
<g id="edge86" class="edge"><title>Uniprot&#45;&#45;ZFIN</title>
<path fill="none" stroke="black" d="M814.569,-506.4C784.211,-539.657 737.956,-593.669 706.193,-646.195 692.847,-668.264 679.471,-694.705 670.805,-712.545"/>
</g>
<!-- Drugbank_Target_v4 -->
<g id="node46" class="node"><title>Drugbank_Target_v4</title>
<ellipse fill="none" stroke="black" cx="1368.28" cy="-382.472" rx="78.9108" ry="21.5"/>
<text text-anchor="middle" x="1368.28" y="-378.772" font-family="Times,serif" font-size="14.00">Drugbank_Target_v4</text>
</g>
<!-- Uniprot&#45;&#45;Drugbank_Target_v4 -->
<g id="edge72" class="edge"><title>Uniprot&#45;&#45;Drugbank_Target_v4</title>
<path fill="none" stroke="black" d="M908.127,-455.771C967.113,-439.519 1058.18,-416.178 1138.66,-402.947 1189.01,-394.668 1246.16,-389.557 1290.86,-386.512"/>
</g>
<!-- SGD -->
<g id="node47" class="node"><title>SGD</title>
<ellipse fill="none" stroke="black" cx="1138.51" cy="-424.847" rx="29" ry="21.5"/>
<text text-anchor="middle" x="1138.51" y="-421.147" font-family="Times,serif" font-size="14.00">SGD</text>
</g>
<!-- Uniprot&#45;&#45;SGD -->
<g id="edge74" class="edge"><title>Uniprot&#45;&#45;SGD</title>
<path fill="none" stroke="black" d="M913.816,-462.35C976.05,-451.963 1064.9,-437.133 1109.95,-429.613"/>
</g>
<!-- OMIM -->
<g id="node48" class="node"><title>OMIM</title>
<ellipse fill="none" stroke="black" cx="824.518" cy="-347.357" rx="33.2786" ry="21.5"/>
<text text-anchor="middle" x="824.518" y="-343.657" font-family="Times,serif" font-size="14.00">OMIM</text>
</g>
<!-- Uniprot&#45;&#45;OMIM -->
<g id="edge80" class="edge"><title>Uniprot&#45;&#45;OMIM</title>
<path fill="none" stroke="black" d="M839.533,-437.873C835.852,-415.685 831.249,-387.935 828.117,-369.05"/>
</g>
<!-- UniGene -->
<g id="node49" class="node"><title>UniGene</title>
<ellipse fill="none" stroke="black" cx="969.59" cy="-387.333" rx="38.4299" ry="21.5"/>
<text text-anchor="middle" x="969.59" y="-383.633" font-family="Times,serif" font-size="14.00">UniGene</text>
</g>
<!-- Uniprot&#45;&#45;UniGene -->
<g id="edge84" class="edge"><title>Uniprot&#45;&#45;UniGene</title>
<path fill="none" stroke="black" d="M887.501,-444.497C906.769,-431.08 928.924,-415.652 945.357,-404.208"/>
</g>
<!-- WormBase -->
<g id="node50" class="node"><title>WormBase</title>
<ellipse fill="none" stroke="black" cx="973.049" cy="-229.739" rx="47.0007" ry="21.5"/>
<text text-anchor="middle" x="973.049" y="-226.039" font-family="Times,serif" font-size="14.00">WormBase</text>
</g>
<!-- Uniprot&#45;&#45;WormBase -->
<g id="edge85" class="edge"><title>Uniprot&#45;&#45;WormBase</title>
<path fill="none" stroke="black" d="M863.762,-438.794C890.629,-387.399 939.976,-293.004 961.967,-250.937"/>
</g>
<!-- Drugbank -->
<g id="node4" class="node"><title>Drugbank</title>
<ellipse fill="none" stroke="black" cx="1400.02" cy="-1186.67" rx="42.0311" ry="21.5"/>
<text text-anchor="middle" x="1400.02" y="-1182.97" font-family="Times,serif" font-size="14.00">Drugbank</text>
</g>
<!-- AERS -->
<g id="node5" class="node"><title>AERS</title>
<ellipse fill="none" stroke="black" cx="1479.9" cy="-1185.5" rx="30.3614" ry="21.5"/>
<text text-anchor="middle" x="1479.9" y="-1181.8" font-family="Times,serif" font-size="14.00">AERS</text>
</g>
<!-- Drugbank&#45;&#45;AERS -->
<g id="edge1" class="edge"><title>Drugbank&#45;&#45;AERS</title>
<path fill="none" stroke="black" d="M1442.3,-1186.05C1444.69,-1186.02 1447.08,-1185.98 1449.41,-1185.95"/>
</g>
<!-- CAS -->
<g id="node7" class="node"><title>CAS</title>
<ellipse fill="none" stroke="black" cx="802.512" cy="-21.5" rx="29" ry="21.5"/>
<text text-anchor="middle" x="802.512" y="-17.8" font-family="Times,serif" font-size="14.00">CAS</text>
</g>
<!-- HMDB&#45;&#45;CAS -->
<g id="edge2" class="edge"><title>HMDB&#45;&#45;CAS</title>
<path fill="none" stroke="black" d="M672.011,-168.008C700.597,-135.915 758.105,-71.3539 786.249,-39.7583"/>
</g>
<!-- KEGG -->
<g id="node8" class="node"><title>KEGG</title>
<ellipse fill="none" stroke="black" cx="106.619" cy="-91.376" rx="31.911" ry="21.5"/>
<text text-anchor="middle" x="106.619" y="-87.676" font-family="Times,serif" font-size="14.00">KEGG</text>
</g>
<!-- HMDB&#45;&#45;KEGG -->
<g id="edge3" class="edge"><title>HMDB&#45;&#45;KEGG</title>
<path fill="none" stroke="black" d="M622.026,-181.226C523.593,-164.066 233.443,-113.485 137.68,-96.7908"/>
</g>
<!-- PubChem -->
<g id="node9" class="node"><title>PubChem</title>
<ellipse fill="none" stroke="black" cx="350.888" cy="-46.3983" rx="42.0311" ry="21.5"/>
<text text-anchor="middle" x="350.888" y="-42.6983" font-family="Times,serif" font-size="14.00">PubChem</text>
</g>
<!-- HMDB&#45;&#45;PubChem -->
<g id="edge4" class="edge"><title>HMDB&#45;&#45;PubChem</title>
<path fill="none" stroke="black" d="M627.297,-174.142C570.534,-147.909 441.662,-88.3498 382.119,-60.8319"/>
</g>
<!-- Wikipedia -->
<g id="node10" class="node"><title>Wikipedia</title>
<ellipse fill="none" stroke="black" cx="571.367" cy="-32.4085" rx="43.5827" ry="21.5"/>
<text text-anchor="middle" x="571.367" y="-28.7085" font-family="Times,serif" font-size="14.00">Wikipedia</text>
</g>
<!-- HMDB&#45;&#45;Wikipedia -->
<g id="edge5" class="edge"><title>HMDB&#45;&#45;Wikipedia</title>
<path fill="none" stroke="black" d="M643.982,-166.464C628.011,-136.98 598.736,-82.9355 582.666,-53.2682"/>
</g>
<!-- Chembl_Target_Component -->
<g id="node12" class="node"><title>Chembl_Target_Component</title>
<ellipse fill="none" stroke="black" cx="1343.76" cy="-74.4441" rx="102.252" ry="21.5"/>
<text text-anchor="middle" x="1343.76" y="-70.7441" font-family="Times,serif" font-size="14.00">Chembl_Target_Component</text>
</g>
<!-- Chembl_Target_Components&#45;&#45;Chembl_Target_Component -->
<g id="edge6" class="edge"><title>Chembl_Target_Components&#45;&#45;Chembl_Target_Component</title>
<path fill="none" stroke="black" d="M1189.53,-217.82C1223.52,-186.224 1287.13,-127.087 1321.07,-95.5382"/>
</g>
<!-- Bioontology_UMLS_NCIM&#45;&#45;Bioontology_MESH -->
<g id="edge59" class="edge"><title>Bioontology_UMLS_NCIM&#45;&#45;Bioontology_MESH</title>
<path fill="none" stroke="black" d="M315.343,-571.249C372.271,-535.074 489.788,-460.396 545.795,-424.805"/>
</g>
<!-- Human_Disease_Ontology -->
<g id="node44" class="node"><title>Human_Disease_Ontology</title>
<ellipse fill="none" stroke="black" cx="97.05" cy="-717.296" rx="97.0999" ry="21.5"/>
<text text-anchor="middle" x="97.05" y="-713.596" font-family="Times,serif" font-size="14.00">Human_Disease_Ontology</text>
</g>
<!-- Bioontology_UMLS_NCIM&#45;&#45;Human_Disease_Ontology -->
<g id="edge58" class="edge"><title>Bioontology_UMLS_NCIM&#45;&#45;Human_Disease_Ontology</title>
<path fill="none" stroke="black" d="M252.352,-612.488C217.783,-635.818 161.965,-673.487 127.504,-696.744"/>
</g>
<!-- Pathway_Ontology -->
<g id="node51" class="node"><title>Pathway_Ontology</title>
<ellipse fill="none" stroke="black" cx="1056.91" cy="-34.4392" rx="71.708" ry="21.5"/>
<text text-anchor="middle" x="1056.91" y="-30.7392" font-family="Times,serif" font-size="14.00">Pathway_Ontology</text>
</g>
<!-- WikiPathways&#45;&#45;Pathway_Ontology -->
<g id="edge87" class="edge"><title>WikiPathways&#45;&#45;Pathway_Ontology</title>
<path fill="none" stroke="black" d="M853.566,-170.226C897.806,-140.684 982.708,-83.9905 1027.53,-54.0597"/>
</g>
<!-- HGNC -->
<g id="node43" class="node"><title>HGNC</title>
<ellipse fill="none" stroke="black" cx="1132.99" cy="-1042.33" rx="32.5946" ry="21.5"/>
<text text-anchor="middle" x="1132.99" y="-1038.63" font-family="Times,serif" font-size="14.00">HGNC</text>
</g>
<!-- HGNC_Accession_number&#45;&#45;HGNC -->
<g id="edge57" class="edge"><title>HGNC_Accession_number&#45;&#45;HGNC</title>
<path fill="none" stroke="black" d="M1037,-1038.16C1059.9,-1039.15 1082.77,-1040.15 1100.44,-1040.92"/>
</g>
<!-- OPS_CRS -->
<g id="node45" class="node"><title>OPS_CRS</title>
<ellipse fill="none" stroke="black" cx="284.527" cy="-270.638" rx="43.5827" ry="21.5"/>
<text text-anchor="middle" x="284.527" y="-266.938" font-family="Times,serif" font-size="14.00">OPS_CRS</text>
</g>
<!-- OPS_CRS&#45;&#45;HMDB -->
<g id="edge61" class="edge"><title>OPS_CRS&#45;&#45;HMDB</title>
<path fill="none" stroke="black" d="M324.537,-261.607C398.462,-244.92 555.071,-209.57 622.785,-194.286"/>
</g>
<!-- OPS_CRS&#45;&#45;ChEBI -->
<g id="edge60" class="edge"><title>OPS_CRS&#45;&#45;ChEBI</title>
<path fill="none" stroke="black" d="M327.993,-267.199C366.77,-264.132 422.647,-259.712 457.473,-256.957"/>
</g>
<!-- OPS_CRS&#45;&#45;Chembl_Compound -->
<g id="edge62" class="edge"><title>OPS_CRS&#45;&#45;Chembl_Compound</title>
<path fill="none" stroke="black" d="M261.08,-289.056C226.346,-316.342 161.443,-367.327 125.33,-395.696"/>
</g>
<!-- OPS_CRS&#45;&#45;Chemspider -->
<g id="edge63" class="edge"><title>OPS_CRS&#45;&#45;Chemspider</title>
<path fill="none" stroke="black" d="M326.992,-276.263C403.052,-286.338 561.974,-307.389 641.306,-317.898"/>
</g>
<!-- OPS_CRS&#45;&#45;DrugBank -->
<g id="edge64" class="edge"><title>OPS_CRS&#45;&#45;DrugBank</title>
<path fill="none" stroke="black" d="M302.797,-290.647C344.066,-335.847 444.088,-445.393 485.161,-490.377"/>
</g>
<!-- OPS_CRS&#45;&#45;Bioontology_MESH -->
<g id="edge65" class="edge"><title>OPS_CRS&#45;&#45;Bioontology_MESH</title>
<path fill="none" stroke="black" d="M316.64,-285.413C370.32,-310.111 478.141,-359.72 536.709,-386.667"/>
</g>
<!-- OPS_CRS&#45;&#45;OPS_CRS -->
<g id="edge66" class="edge"><title>OPS_CRS&#45;&#45;OPS_CRS</title>
<path fill="none" stroke="black" d="M328.403,-272.108C338.712,-271.987 346.318,-271.497 346.318,-270.638 346.318,-269.778 338.712,-269.288 328.403,-269.167"/>
</g>
<!-- OPS_CRS&#45;&#45;OPS_CRS -->
<g id="edge67" class="edge"><title>OPS_CRS&#45;&#45;OPS_CRS</title>
<path fill="none" stroke="black" d="M326.487,-277.098C377,-281.979 436.318,-279.825 436.318,-270.638 436.318,-261.45 377,-259.297 326.487,-264.178"/>
</g>
<!-- OPS_CRS&#45;&#45;OPS_CRS -->
<g id="edge68" class="edge"><title>OPS_CRS&#45;&#45;OPS_CRS</title>
<path fill="none" stroke="black" d="M326.998,-276.49C370.215,-279.932 418.318,-277.982 418.318,-270.638 418.318,-263.294 370.215,-261.343 326.998,-264.786"/>
</g>
<!-- OPS_CRS&#45;&#45;OPS_CRS -->
<g id="edge69" class="edge"><title>OPS_CRS&#45;&#45;OPS_CRS</title>
<path fill="none" stroke="black" d="M327.281,-275.722C362.998,-277.895 400.318,-276.2 400.318,-270.638 400.318,-265.075 362.998,-263.38 327.281,-265.553"/>
</g>
<!-- OPS_CRS&#45;&#45;OPS_CRS -->
<g id="edge70" class="edge"><title>OPS_CRS&#45;&#45;OPS_CRS</title>
<path fill="none" stroke="black" d="M327.507,-274.772C355.399,-275.871 382.318,-274.493 382.318,-270.638 382.318,-266.782 355.399,-265.404 327.507,-266.504"/>
</g>
<!-- OPS_CRS&#45;&#45;OPS_CRS -->
<g id="edge71" class="edge"><title>OPS_CRS&#45;&#45;OPS_CRS</title>
<path fill="none" stroke="black" d="M328.026,-273.591C347.487,-273.872 364.318,-272.888 364.318,-270.638 364.318,-268.388 347.487,-267.403 328.026,-267.685"/>
</g>
</g>
</svg>
